<?xml version="1.0" encoding="UTF-8" standalone="no"?>
<!-- Created with Inkscape (http://www.inkscape.org/) -->

<svg
   width="210mm"
   height="297mm"
   viewBox="0 0 210 297"
   version="1.1"
   id="svg1"
   xml:space="preserve"
   inkscape:version="1.4 (e7c3feb100, 2024-10-09)"
   sodipodi:docname="frogtools.svg"
   xmlns:inkscape="http://www.inkscape.org/namespaces/inkscape"
   xmlns:sodipodi="http://sodipodi.sourceforge.net/DTD/sodipodi-0.dtd"
   xmlns="http://www.w3.org/2000/svg"
   xmlns:svg="http://www.w3.org/2000/svg"><sodipodi:namedview
     id="namedview1"
     pagecolor="#ffffff"
     bordercolor="#000000"
     borderopacity="0.25"
     inkscape:showpageshadow="2"
     inkscape:pageopacity="0.0"
     inkscape:pagecheckerboard="0"
     inkscape:deskcolor="#d1d1d1"
     inkscape:document-units="mm"
     inkscape:zoom="3.3109189"
     inkscape:cx="118.84918"
     inkscape:cy="179.10435"
     inkscape:window-width="1920"
     inkscape:window-height="1131"
     inkscape:window-x="0"
     inkscape:window-y="32"
     inkscape:window-maximized="1"
     inkscape:current-layer="layer1" /><defs
     id="defs1"><rect
       x="317.98011"
       y="223.00089"
       width="28.608197"
       height="18.95293"
       id="rect3" /></defs><g
     inkscape:label="Layer 1"
     inkscape:groupmode="layer"
     id="layer1"><g
       id="g4"
       transform="translate(-75.758122,-118.13538)"
       inkscape:export-filename="g4.png"
       inkscape:export-xdpi="161.64778"
       inkscape:export-ydpi="161.64778"><rect
         style="fill:#e9c5ff;fill-opacity:1;stroke-width:1.616"
         id="rect1"
         width="30.1693"
         height="30.1693"
         x="89.915352"
         y="133.41534" /><g
         id="g3"
         transform="matrix(0.21072278,0,0,0.21072278,91.515072,134.04404)"><path
           d="m 14.16,48.37 c -0.43,4.5 -10,10.84 -9.57,26.89 0.43,16.05 13.09,44.06 57.72,44.77 44.63,0.7 60.96,-27.31 61.1,-46.6 C 123.54,55.55 114.83,52 113.84,47.39 113,43.45 120.6,25.43 103.56,18.95 83.45,11.3 75.96,30.63 75.4,31.05 c -0.56,0.42 -6.05,0.7 -10.84,0.7 -4.79,0 -10,0 -10.56,-0.56 C 53.44,30.63 41.19,11.2 23.45,19.36 6.81,27.03 14.44,45.41 14.16,48.37 Z"
           fill="#b7d019"
           id="path1" /><path
           d="m 103.08,42.36 c 0,5.29 -3,9.76 -8.02,9.57 -4.33,-0.16 -7.84,-4.29 -7.84,-9.57 0,-5.28 3.51,-9.49 7.84,-9.57 5.11,-0.1 8.02,4.28 8.02,9.57 z"
           fill="#2f2f2f"
           id="path2" /><path
           d="m 41.89,41.61 c 0.28,6.76 -3,10.14 -8.02,10.04 -4.22,-0.08 -7.56,-3.19 -7.65,-9.67 -0.08,-5.34 1.97,-9.48 7.65,-9.67 4.22,-0.13 7.8,3.97 8.02,9.3 z"
           fill="#2f2f2f"
           id="path3" /><path
           d="m 53.29,63.5 c -0.81,1.79 -3.06,2.35 -4.57,1.48 -1.5,-0.87 -1.91,-3.23 -0.93,-4.93 0.98,-1.7 2.65,-1.96 3.87,-1.48 1.63,0.64 2.83,2.28 1.63,4.93 z"
           fill="#2f2f2f"
           id="path4" /><path
           d="m 80.33,60.55 c 0.77,1.86 -0.16,4.04 -1.94,4.57 -1.78,0.53 -3.69,-0.61 -4.26,-2.54 -0.57,-1.93 0.14,-3.61 1.87,-4.3 1.13,-0.44 3.19,-0.48 4.33,2.27 z"
           fill="#2f2f2f"
           id="path5" /><path
           d="m 27.44,78.31 0.38,2.72 c 0,0 10.51,10.98 35.85,11.36 26,0.39 37.26,-12.29 37.26,-12.29 L 89.29,74.47 c 0,0 -11.07,4.69 -25.34,4.41 C 49.68,78.6 35.61,74.47 35.61,74.47 Z"
           fill="#ff6011"
           id="path6" /><path
           d="m 104.59,71.92 c -3.28,-4.79 -7.23,-0.43 -13.42,1.88 -3.43,1.28 -5.7,2.02 -5.7,2.02 0,0 5.09,0.99 7.34,2.21 2.25,1.22 6.17,3.89 6.17,3.89 0,0 8.37,-5.96 5.61,-10 z"
           fill="#865b51"
           id="path7" /><path
           d="m 24.81,71.36 c -3.94,2.63 3.02,9.68 3.02,9.68 0,0 2.15,-1.98 5.06,-3.2 2.91,-1.22 7.78,-2.1 7.78,-2.1 0,0 -5.63,-1.27 -8.9,-3.16 -1.69,-0.96 -4.71,-2.72 -6.96,-1.22 z"
           fill="#865b51"
           id="path8" /></g></g></g></svg>
